# xmcd CD database file
#
# Track frame offsets:
#	150
#	14941
#	28304
#	40545
#	56968
#	70306
#	83207
#	97185
#	107711
#	120090
#	132875
#	141951
#	153920
#	167197
#	178872
#	192531
#	205247
#	220293
#	231730
#	242976
#
# Disc length: 3388 seconds
#
# Revision: 0
# Processed by: cddbd v1.5.1PL0 Copyright (c) Steve Scherf et al.
# Submitted via: CDex 1.51
#
DISCID=370d3a14
DTITLE=B. B. King - Best Recordings
DYEAR=2002
DGENRE=Blues
TTITLE0=B. B. Boogie
TTITLE1=Story from my heart and soul
TTITLE2=Miss Martha King
TTITLE3=The other night blues
TTITLE4=Woke up this morning
TTITLE5=Someday, somewhere
TTITLE6=She dont move me no more
TTITLE7=That anint the way to do it
TTITLE8=Highway bound
TTITLE9=Got the blues
TTITLE10=My baby is gone
TTITLE11=Dont you want a man like me
TTITLE12=Blind love
TTITLE13=Take a swing with me
TTITLE14=Three o'clock blues
TTITLE15=Please love me
TTITLE16=Can't we talk it over
TTITLE17=She's dynamite
TTITLE18=B. B. Blues
TTITLE19=Bye! Bye! Baby
EXTD=YEAR: 2002
EXTT0=
EXTT1=
EXTT2=
EXTT3=
EXTT4=
EXTT5=
EXTT6=
EXTT7=
EXTT8=
EXTT9=
EXTT10=
EXTT11=
EXTT12=
EXTT13=
EXTT14=
EXTT15=
EXTT16=
EXTT17=
EXTT18=
EXTT19=
PLAYORDER=
